<svg xmlns="http://www.w3.org/2000/svg" viewBox="0 0 800 600">
  <defs>
    <style>
      .commune-zone { transition: fill-opacity 0.2s ease, fill 0.2s ease, filter 0.2s ease; cursor: pointer; }
      .commune-label { pointer-events: none; user-select: none; paint-order: stroke; }
      .quartier-layer { display: none; }
      .quartier-marker { cursor: pointer; transition: r 0.15s ease, fill 0.15s ease; }
      .quartier-label { pointer-events: none; user-select: none; paint-order: stroke; }
    </style>
  </defs>
  <g id="communes-layer">
    <path id="commune-afareaitu" data-commune="Afareaitu" class="commune-zone"
          d="M 421.7,423.9 L 428.3,473.1 L 435.3,485.0 L 437.4,493.7 L 445.2,501.8 L 444.0,509.1 L 451.4,522.5 L 445.3,548.1 L 445.3,560.0 L 478.6,551.9 L 488.1,553.4 L 494.4,551.5 L 495.1,553.5 L 504.7,555.5 L 521.0,548.0 L 518.4,539.4 L 508.6,532.9 L 512.8,528.7 L 518.3,529.1 L 520.2,524.0 L 524.9,522.7 L 524.3,519.7 L 525.2,524.2 L 531.2,524.4 L 543.6,513.9 L 553.4,491.0 L 552.3,478.9 L 558.0,463.7 L 571.8,459.0 L 566.1,443.9 L 569.2,442.2 L 576.2,427.7 L 581.2,424.2 L 588.1,403.5 L 581.6,389.6 L 582.4,387.5 L 587.4,387.2 L 587.3,383.4 L 579.1,381.6 L 582.6,380.0 L 581.9,375.0 L 585.3,371.7 L 593.8,370.5 L 598.6,374.3 L 604.5,368.6 L 603.3,366.7 L 614.1,362.9 L 627.2,351.3 L 638.8,347.9 L 644.9,343.5 L 646.2,341.2 L 642.8,332.3 L 651.4,323.9 L 649.2,315.2 L 654.0,298.1 L 650.0,285.7 L 648.7,283.7 L 643.4,288.7 L 626.3,284.2 L 608.0,285.0 L 595.1,303.3 L 591.7,314.1 L 582.5,314.4 L 563.9,306.5 L 553.3,292.9 L 544.6,288.8 L 536.2,274.2 L 527.8,271.7 L 521.7,288.4 L 507.0,305.0 L 496.2,312.8 L 476.2,315.3 L 459.2,331.0 L 452.8,351.9 L 452.8,358.7 L 448.3,366.1 L 448.1,374.6 L 428.8,398.2 L 421.7,423.9 Z M 638.4,378.8 L 640.8,381.8 L 643.0,378.9 L 642.8,374.4 L 640.8,379.8 L 642.0,374.7 L 639.5,371.5 L 638.4,378.8 Z"
          fill="#1D9E75" fill-opacity="0.7"
          stroke="#ffffff" stroke-width="1.5"/>
    <path id="commune-haapiti" data-commune="Haapiti" class="commune-zone"
          d="M 62.6,170.4 L 67.2,198.9 L 65.3,209.5 L 75.8,222.6 L 78.5,236.2 L 80.6,237.2 L 77.4,237.7 L 76.0,243.6 L 78.2,253.2 L 81.9,260.3 L 92.1,268.5 L 113.0,297.8 L 109.5,301.6 L 111.9,306.5 L 115.6,307.0 L 112.9,307.8 L 113.8,315.4 L 121.4,320.3 L 128.1,328.6 L 145.9,338.7 L 177.9,363.5 L 188.8,366.1 L 206.4,379.3 L 208.6,378.3 L 207.3,380.0 L 211.3,377.9 L 207.7,382.7 L 210.6,389.1 L 216.6,394.5 L 235.2,399.6 L 241.1,406.4 L 239.8,415.6 L 244.3,415.2 L 239.6,417.6 L 247.0,425.5 L 246.1,434.9 L 259.6,447.3 L 263.7,457.8 L 265.5,456.7 L 264.2,459.7 L 268.4,461.9 L 269.3,465.4 L 265.2,466.6 L 265.3,468.8 L 267.9,468.9 L 268.5,466.4 L 269.0,469.6 L 271.2,466.8 L 281.3,477.0 L 288.3,480.6 L 293.0,488.7 L 307.0,495.6 L 309.7,487.2 L 316.3,483.4 L 315.2,479.7 L 316.8,479.9 L 319.5,493.0 L 324.0,497.0 L 323.7,500.8 L 327.5,506.7 L 324.3,510.6 L 325.1,516.0 L 330.8,527.1 L 336.0,530.1 L 344.9,530.2 L 350.3,525.6 L 357.8,512.7 L 365.0,508.0 L 370.6,524.4 L 369.3,528.4 L 371.5,527.1 L 370.9,529.5 L 379.4,536.9 L 373.8,541.2 L 373.7,543.9 L 386.7,554.8 L 395.8,551.7 L 420.4,551.2 L 433.7,553.6 L 445.3,560.0 L 445.3,548.1 L 451.4,522.5 L 444.0,509.1 L 445.2,501.8 L 437.4,493.7 L 435.3,485.0 L 428.3,473.1 L 421.7,423.9 L 427.0,401.6 L 441.1,381.1 L 414.3,378.0 L 397.2,381.4 L 388.8,370.6 L 379.0,363.4 L 353.6,357.7 L 318.9,335.6 L 297.7,335.2 L 290.4,330.9 L 271.2,329.6 L 265.4,318.6 L 256.6,313.9 L 240.0,312.4 L 232.3,307.8 L 229.9,290.9 L 223.7,282.1 L 219.1,256.3 L 213.0,254.4 L 201.4,256.5 L 194.0,247.6 L 184.1,240.6 L 176.8,227.4 L 166.2,219.7 L 168.9,206.6 L 167.7,195.6 L 180.5,186.7 L 183.6,178.1 L 173.8,169.8 L 168.1,160.8 L 171.0,147.6 L 170.2,136.6 L 174.6,132.8 L 171.4,120.6 L 169.6,119.3 L 169.3,122.4 L 165.9,123.0 L 166.0,120.8 L 163.5,120.7 L 165.1,118.7 L 167.3,120.2 L 164.1,116.9 L 164.9,114.9 L 159.1,117.8 L 153.8,110.8 L 149.9,111.5 L 147.8,116.4 L 139.0,120.9 L 138.1,124.5 L 140.3,126.4 L 147.3,122.5 L 140.1,128.0 L 129.2,125.7 L 136.7,125.7 L 137.7,120.8 L 107.5,114.0 L 93.7,115.2 L 94.1,120.3 L 91.8,119.1 L 86.9,127.1 L 76.7,123.0 L 77.0,124.9 L 72.2,127.4 L 66.3,146.0 L 62.6,170.4 Z"
          fill="#1D9E75" fill-opacity="0.7"
          stroke="#ffffff" stroke-width="1.5"/>
    <path id="commune-pao-pao" data-commune="Pao Pao" class="commune-zone"
          d="M 352.5,129.0 L 353.8,136.6 L 363.1,152.8 L 373.7,164.0 L 373.6,173.9 L 397.6,221.0 L 405.1,231.9 L 413.4,239.0 L 410.9,250.8 L 423.6,263.3 L 434.9,266.6 L 449.1,283.8 L 450.4,304.9 L 466.0,323.5 L 476.5,315.1 L 496.2,312.8 L 508.0,304.0 L 521.7,288.4 L 531.9,261.6 L 539.8,255.0 L 535.1,228.4 L 545.7,208.8 L 542.3,181.3 L 551.6,178.7 L 584.6,181.2 L 596.3,170.2 L 597.5,158.9 L 594.8,147.1 L 616.7,136.1 L 625.6,125.2 L 630.7,111.7 L 642.4,96.8 L 645.9,84.4 L 643.6,72.0 L 652.6,43.5 L 641.9,40.0 L 646.5,41.4 L 642.1,41.8 L 625.7,54.0 L 591.1,62.0 L 567.2,70.3 L 556.9,69.9 L 550.5,74.6 L 550.5,72.8 L 542.0,72.5 L 536.0,74.7 L 526.2,70.0 L 520.9,75.9 L 503.8,73.5 L 496.9,82.0 L 474.3,86.2 L 464.9,112.6 L 469.5,123.9 L 467.3,133.5 L 470.9,140.3 L 468.3,159.3 L 472.4,164.3 L 466.4,168.9 L 459.6,185.6 L 447.5,185.0 L 442.5,181.9 L 443.3,162.5 L 445.6,156.9 L 435.7,136.2 L 432.6,123.1 L 432.3,116.0 L 434.5,114.4 L 431.9,108.3 L 432.8,101.5 L 421.8,90.8 L 416.7,90.4 L 405.0,95.8 L 382.2,89.5 L 356.0,89.5 L 359.2,100.8 L 358.3,112.2 L 356.5,124.3 L 352.5,129.0 Z"
          fill="#1D9E75" fill-opacity="0.7"
          stroke="#ffffff" stroke-width="1.5"/>
    <path id="commune-papeatoai" data-commune="Papeatoai" class="commune-zone"
          d="M 166.2,219.7 L 176.8,227.4 L 184.1,240.6 L 194.0,247.6 L 201.4,256.5 L 213.0,254.4 L 219.1,256.3 L 223.7,282.1 L 229.9,290.9 L 232.3,307.8 L 238.9,311.9 L 256.6,313.9 L 265.4,318.6 L 271.2,329.6 L 290.4,330.9 L 297.7,335.2 L 318.9,335.6 L 353.6,357.7 L 379.0,363.4 L 388.8,370.6 L 397.2,381.4 L 414.3,378.0 L 428.7,380.9 L 445.4,379.6 L 448.1,374.6 L 448.3,366.1 L 452.8,358.7 L 457.0,335.7 L 466.0,323.5 L 450.4,304.9 L 449.1,283.8 L 434.9,266.6 L 423.6,263.3 L 410.9,250.8 L 413.4,239.0 L 401.1,227.2 L 373.6,173.9 L 373.7,164.0 L 363.1,152.8 L 353.8,136.6 L 352.5,128.4 L 357.3,121.6 L 359.2,100.8 L 355.6,89.9 L 347.9,95.2 L 337.4,113.5 L 331.3,119.7 L 331.5,125.6 L 328.2,131.1 L 329.9,135.1 L 318.2,159.5 L 321.7,166.0 L 322.9,179.0 L 326.1,183.3 L 325.5,192.0 L 331.0,203.3 L 336.6,207.4 L 337.7,225.7 L 330.6,233.7 L 319.9,230.4 L 317.9,222.5 L 306.6,203.8 L 298.0,197.1 L 301.3,183.3 L 290.4,161.3 L 279.8,151.1 L 281.4,149.3 L 279.8,143.2 L 273.8,141.2 L 248.3,119.6 L 244.8,119.1 L 247.6,121.6 L 244.5,120.1 L 242.8,123.4 L 233.5,123.2 L 225.5,118.2 L 219.5,120.2 L 223.7,122.6 L 225.5,127.2 L 220.0,130.1 L 213.2,127.8 L 212.1,122.7 L 192.5,118.6 L 188.9,115.8 L 182.7,118.0 L 179.1,116.5 L 178.9,118.4 L 176.2,115.7 L 169.9,118.5 L 174.6,132.8 L 170.2,136.6 L 171.0,147.6 L 168.1,160.8 L 173.8,169.8 L 183.6,178.1 L 180.5,186.7 L 167.7,195.6 L 168.9,206.6 L 166.2,219.7 Z"
          fill="#1D9E75" fill-opacity="0.7"
          stroke="#ffffff" stroke-width="1.5"/>
    <path id="commune-teavaro" data-commune="Teavaro" class="commune-zone"
          d="M 527.6,270.7 L 536.2,274.2 L 544.6,288.8 L 553.3,292.9 L 563.9,306.5 L 582.5,314.4 L 591.7,314.1 L 595.1,303.3 L 608.0,285.0 L 626.5,284.2 L 644.0,288.7 L 648.7,283.7 L 643.4,277.2 L 642.2,269.6 L 637.2,261.3 L 640.2,253.1 L 635.1,254.3 L 638.5,255.3 L 637.0,260.0 L 624.2,258.7 L 617.7,251.0 L 618.2,243.4 L 619.7,241.7 L 632.2,243.4 L 635.3,241.4 L 644.4,241.8 L 659.3,231.2 L 661.2,221.1 L 670.4,213.9 L 670.3,206.7 L 666.9,205.1 L 669.9,202.8 L 668.7,191.6 L 672.7,187.3 L 671.7,185.9 L 677.2,183.8 L 680.2,172.8 L 689.4,157.2 L 703.2,148.5 L 717.7,143.8 L 728.1,146.8 L 734.1,139.8 L 737.1,130.9 L 735.9,124.0 L 697.0,101.5 L 688.8,89.9 L 679.1,63.9 L 668.4,53.3 L 653.4,43.8 L 643.7,71.5 L 645.9,84.9 L 642.4,96.8 L 630.7,111.7 L 625.6,125.2 L 616.7,136.1 L 594.8,147.1 L 597.5,158.9 L 596.3,170.2 L 584.6,181.2 L 551.3,178.7 L 542.3,181.3 L 545.7,208.8 L 535.1,228.4 L 539.9,254.9 L 531.9,261.6 L 527.6,270.7 Z"
          fill="#1D9E75" fill-opacity="0.7"
          stroke="#ffffff" stroke-width="1.5"/>
    <path id="commune-maiao" data-commune="Maiao" class="commune-zone"
          d="M 31.5,507.9 L 33.8,511.7 L 40.2,508.2 L 47.7,509.7 L 50.3,514.7 L 55.7,508.2 L 53.1,514.7 L 57.2,526.6 L 60.1,527.5 L 65.2,525.4 L 69.1,519.9 L 76.8,517.6 L 78.5,502.5 L 58.5,474.4 L 53.6,472.6 L 41.0,487.2 L 38.9,498.4 L 37.3,500.6 L 34.8,499.9 L 36.8,502.1 L 32.3,503.6 L 31.5,507.9 Z"
          fill="#1D9E75" fill-opacity="0.7"
          stroke="#ffffff" stroke-width="1.5"/>
  </g>
  <g id="quartiers-afareaitu" class="quartier-layer" data-for="Afareaitu">
  </g>
  <g id="quartiers-haapiti" class="quartier-layer" data-for="Haapiti">
  </g>
  <g id="quartiers-pao-pao" class="quartier-layer" data-for="Pao Pao">
  </g>
  <g id="quartiers-papeatoai" class="quartier-layer" data-for="Papeatoai">
  </g>
  <g id="quartiers-teavaro" class="quartier-layer" data-for="Teavaro">
  </g>
  <g id="quartiers-maiao" class="quartier-layer" data-for="Maiao">
  </g>
  <g id="labels-layer">
    <text class="commune-label" x="542.3" y="413.9" fill="#ffffff" stroke="#0F6E56" stroke-width="3" font-size="15" font-family="system-ui, sans-serif" font-weight="600" text-anchor="middle">Afareaitu</text>
    <text class="commune-label" x="239.3" y="344.8" fill="#ffffff" stroke="#0F6E56" stroke-width="3" font-size="15" font-family="system-ui, sans-serif" font-weight="600" text-anchor="middle">Haapiti</text>
    <text class="commune-label" x="492.0" y="150.2" fill="#ffffff" stroke="#0F6E56" stroke-width="3" font-size="15" font-family="system-ui, sans-serif" font-weight="600" text-anchor="middle">Pao Pao</text>
    <text class="commune-label" x="293.4" y="208.9" fill="#ffffff" stroke="#0F6E56" stroke-width="3" font-size="15" font-family="system-ui, sans-serif" font-weight="600" text-anchor="middle">Papeatoai</text>
    <text class="commune-label" x="655.0" y="186.2" fill="#ffffff" stroke="#0F6E56" stroke-width="3" font-size="15" font-family="system-ui, sans-serif" font-weight="600" text-anchor="middle">Teavaro</text>
    <text class="commune-label" x="48.5" y="506.3" fill="#ffffff" stroke="#0F6E56" stroke-width="3" font-size="13" font-family="system-ui, sans-serif" font-weight="600" text-anchor="middle">Maiao</text>
  </g>
</svg>