<svg xmlns="http://www.w3.org/2000/svg" viewBox="0 0 750 850">
  <defs>
    <style>
      .commune-zone { transition: fill-opacity 0.2s ease, fill 0.2s ease, filter 0.2s ease; cursor: pointer; }
      .commune-label { pointer-events: none; user-select: none; paint-order: stroke; }
      .quartier-layer { display: none; }
      .quartier-marker { cursor: pointer; transition: r 0.15s ease, fill 0.15s ease; }
      .quartier-label { pointer-events: none; user-select: none; paint-order: stroke; }
    </style>
  </defs>
  <g id="communes-layer">
    <path id="commune-papeete" data-commune="Papeete" class="commune-zone"
          d="M 66.3,222.6 L 145.8,277.8 L 148.1,272.7 L 144.6,265.0 L 138.7,262.2 L 136.6,247.6 L 133.1,245.6 L 134.3,241.0 L 131.7,231.2 L 125.9,224.3 L 120.3,223.3 L 112.1,211.6 L 108.1,194.2 L 108.7,173.7 L 97.3,175.4 L 96.1,178.9 L 89.9,180.2 L 87.8,176.3 L 83.2,182.5 L 78.5,181.2 L 79.3,186.3 L 85.5,187.1 L 86.5,191.9 L 83.9,192.9 L 86.3,192.5 L 85.9,195.1 L 83.2,196.0 L 86.8,196.4 L 68.7,204.0 L 66.3,222.6 Z"
          fill="#1D9E75" fill-opacity="0.7"
          stroke="#ffffff" stroke-width="1.5"/>
    <path id="commune-pirae" data-commune="Pirae" class="commune-zone"
          d="M 107.5,184.7 L 112.1,211.6 L 120.3,223.3 L 125.9,224.3 L 131.7,231.2 L 134.3,241.0 L 133.1,245.6 L 136.6,247.6 L 138.7,262.2 L 144.6,265.0 L 148.1,272.7 L 145.5,278.1 L 154.2,284.1 L 154.7,289.8 L 168.8,297.8 L 177.8,313.0 L 189.1,319.4 L 195.7,309.1 L 197.1,291.2 L 200.9,284.9 L 197.7,276.8 L 199.0,267.7 L 202.6,264.4 L 201.4,250.2 L 194.2,246.8 L 187.4,231.3 L 179.0,220.2 L 171.7,216.2 L 163.4,199.4 L 146.0,197.1 L 129.2,185.3 L 125.9,180.4 L 131.1,170.7 L 124.2,167.8 L 118.8,174.9 L 109.3,174.4 L 107.5,184.7 Z"
          fill="#1D9E75" fill-opacity="0.7"
          stroke="#ffffff" stroke-width="1.5"/>
    <path id="commune-arue" data-commune="Arue" class="commune-zone"
          d="M 125.9,180.4 L 129.2,185.3 L 146.0,197.1 L 163.4,199.4 L 171.7,216.2 L 179.0,220.2 L 187.4,231.3 L 194.2,246.8 L 201.4,250.2 L 205.6,243.6 L 203.8,217.4 L 201.0,211.5 L 202.5,200.1 L 197.3,191.1 L 196.3,177.7 L 193.1,177.8 L 187.4,170.7 L 183.0,154.0 L 177.0,154.2 L 180.0,161.1 L 172.8,164.1 L 168.9,170.3 L 153.5,172.6 L 149.3,167.3 L 144.2,172.3 L 135.5,175.5 L 131.1,171.2 L 125.9,180.4 Z M 136.6,171.9 L 139.5,171.8 L 136.6,171.9 Z"
          fill="#1D9E75" fill-opacity="0.7"
          stroke="#ffffff" stroke-width="1.5"/>
    <path id="commune-mahina" data-commune="Mahina" class="commune-zone"
          d="M 183.1,154.1 L 187.4,170.7 L 193.1,177.8 L 196.3,177.7 L 197.3,191.1 L 202.5,200.1 L 201.0,211.5 L 204.6,226.7 L 205.6,243.6 L 200.8,252.3 L 202.6,264.4 L 199.0,267.7 L 197.7,276.8 L 201.0,284.3 L 197.1,291.2 L 195.2,311.3 L 207.5,321.0 L 221.8,323.6 L 224.8,318.9 L 232.5,317.3 L 240.9,312.1 L 243.4,290.1 L 251.6,269.7 L 253.5,254.4 L 258.1,239.9 L 265.3,231.9 L 261.4,225.9 L 261.6,216.9 L 263.8,213.8 L 262.6,195.5 L 255.3,182.5 L 256.2,174.1 L 252.9,170.0 L 253.8,150.3 L 248.5,145.2 L 241.3,147.9 L 225.8,144.5 L 216.7,135.1 L 207.5,134.5 L 202.4,128.7 L 196.4,126.8 L 195.3,128.6 L 193.6,127.4 L 197.3,134.3 L 195.1,142.7 L 187.8,152.3 L 184.2,151.3 L 183.1,154.1 Z M 203.8,127.3 L 204.3,125.5 L 203.8,127.3 Z M 217.8,129.2 L 217.8,129.2 Z M 218.1,130.1 L 220.4,131.6 L 218.1,130.1 Z"
          fill="#1D9E75" fill-opacity="0.7"
          stroke="#ffffff" stroke-width="1.5"/>
    <path id="commune-hitiaa-o-te-ra" data-commune="Hitiaa O Te Ra" class="commune-zone"
          d="M 213.1,357.5 L 217.6,362.6 L 222.1,383.8 L 230.5,401.3 L 238.4,401.3 L 246.4,405.9 L 261.3,403.8 L 271.9,407.6 L 287.3,402.2 L 301.4,393.0 L 316.9,389.7 L 316.6,361.5 L 320.5,354.3 L 327.6,348.7 L 329.2,339.3 L 336.4,337.6 L 352.1,340.5 L 359.7,335.9 L 372.4,337.2 L 385.1,346.7 L 395.6,344.2 L 414.6,348.6 L 422.4,353.2 L 430.7,353.6 L 434.6,361.1 L 444.7,366.7 L 457.7,369.9 L 459.2,373.7 L 464.4,372.6 L 464.4,369.2 L 466.8,367.8 L 469.0,357.1 L 466.7,350.3 L 475.5,343.4 L 479.9,309.5 L 483.5,304.0 L 470.1,274.6 L 474.5,271.0 L 468.1,269.5 L 468.6,255.9 L 460.2,244.7 L 448.2,238.7 L 436.5,219.2 L 436.0,214.6 L 432.5,214.2 L 421.1,203.1 L 404.7,197.6 L 390.5,199.0 L 384.9,197.6 L 384.6,195.7 L 378.2,196.3 L 368.2,193.0 L 355.6,179.0 L 348.9,176.9 L 348.9,172.4 L 337.9,165.1 L 330.3,163.7 L 328.4,160.0 L 322.8,161.3 L 315.0,159.4 L 292.3,146.9 L 287.8,149.7 L 253.2,147.7 L 252.9,170.0 L 256.2,174.1 L 255.3,182.5 L 262.6,195.5 L 263.8,213.8 L 261.6,216.9 L 261.4,225.9 L 265.3,231.9 L 258.1,239.9 L 253.5,254.4 L 251.6,269.7 L 243.4,290.1 L 240.9,312.1 L 223.8,320.1 L 218.3,335.0 L 219.7,341.4 L 213.1,357.5 Z M 280.1,146.8 L 280.1,146.8 Z M 477.4,246.3 L 477.4,246.3 Z"
          fill="#1D9E75" fill-opacity="0.7"
          stroke="#ffffff" stroke-width="1.5"/>
    <path id="commune-papenoo" data-commune="Papenoo" class="commune-zone"
          d="M 213.1,357.5 L 217.6,362.6 L 222.1,383.8 L 230.8,401.4 L 238.4,401.3 L 246.4,405.9 L 261.3,403.8 L 272.1,407.6 L 287.3,402.2 L 301.4,393.0 L 316.9,389.7 L 316.6,361.5 L 320.5,354.3 L 327.6,348.7 L 329.7,333.3 L 325.3,327.8 L 335.1,318.1 L 339.3,297.4 L 336.7,291.0 L 338.7,279.6 L 324.1,269.0 L 319.4,252.8 L 315.3,247.7 L 315.9,231.0 L 312.5,215.6 L 330.3,184.2 L 338.8,175.7 L 345.3,175.2 L 348.9,172.4 L 337.9,165.1 L 330.3,163.7 L 328.4,160.0 L 316.3,159.9 L 292.3,146.9 L 287.8,149.7 L 253.2,147.7 L 252.9,170.0 L 256.2,174.1 L 255.3,182.5 L 262.6,195.5 L 263.8,213.8 L 261.6,216.9 L 261.4,225.9 L 265.3,231.9 L 258.1,239.9 L 253.5,254.4 L 251.6,269.7 L 243.4,290.1 L 240.9,312.1 L 223.8,320.1 L 218.3,335.0 L 219.7,341.4 L 213.1,357.5 Z"
          fill="#1D9E75" fill-opacity="0.7"
          stroke="#ffffff" stroke-width="1.5"/>
    <path id="commune-faaone" data-commune="Faaone" class="commune-zone"
          d="M 315.8,367.0 L 318.0,370.9 L 316.8,389.8 L 323.6,399.3 L 346.9,397.1 L 355.5,404.3 L 364.0,407.3 L 363.0,414.7 L 365.4,420.5 L 382.5,427.0 L 385.5,430.1 L 399.7,431.2 L 405.7,436.0 L 420.8,439.4 L 425.4,442.8 L 428.2,450.0 L 441.4,453.0 L 455.1,463.3 L 467.1,482.5 L 480.3,482.0 L 476.7,478.9 L 476.8,474.9 L 475.1,477.8 L 473.2,475.3 L 478.4,449.5 L 475.8,441.4 L 476.9,411.9 L 473.2,408.4 L 472.6,398.1 L 465.5,386.0 L 466.6,375.9 L 464.4,372.6 L 459.2,373.7 L 457.7,369.9 L 438.2,363.3 L 433.3,360.1 L 429.8,353.2 L 422.4,353.2 L 415.5,348.9 L 395.6,344.2 L 385.1,346.7 L 375.1,338.2 L 362.0,335.8 L 352.1,340.5 L 336.4,337.6 L 329.5,339.0 L 327.6,348.7 L 320.5,354.3 L 315.8,367.0 Z M 476.8,478.3 L 476.8,478.3 Z"
          fill="#1D9E75" fill-opacity="0.7"
          stroke="#ffffff" stroke-width="1.5"/>
    <path id="commune-taiarapu-est" data-commune="Taiarapu-Est" class="commune-zone"
          d="M 315.8,367.0 L 318.0,370.9 L 316.8,389.8 L 323.6,399.3 L 346.9,397.1 L 355.5,404.3 L 364.0,407.3 L 363.0,414.7 L 365.4,420.5 L 382.5,427.0 L 385.5,430.1 L 399.7,431.2 L 405.6,435.8 L 410.0,448.9 L 408.6,459.7 L 410.8,465.6 L 407.2,471.8 L 407.6,483.0 L 411.5,490.8 L 425.6,497.8 L 431.3,497.2 L 435.1,499.8 L 434.3,493.5 L 437.2,493.4 L 435.3,491.6 L 440.2,492.1 L 440.6,489.4 L 445.1,487.7 L 448.5,491.3 L 453.1,490.8 L 443.9,497.6 L 454.2,498.2 L 454.7,504.0 L 441.6,507.4 L 447.6,508.8 L 450.2,512.8 L 466.5,515.7 L 493.6,531.1 L 501.6,532.0 L 509.6,536.7 L 514.1,544.2 L 517.3,544.0 L 529.1,551.5 L 533.9,556.1 L 536.4,564.4 L 545.9,564.5 L 549.3,568.3 L 553.9,569.3 L 560.2,575.9 L 558.5,582.8 L 575.1,595.2 L 577.7,611.4 L 584.0,615.7 L 586.5,616.3 L 596.1,601.2 L 609.9,599.5 L 611.5,613.1 L 607.1,624.3 L 609.5,630.5 L 616.3,628.3 L 625.9,629.4 L 628.9,626.1 L 631.9,626.7 L 638.8,630.3 L 642.2,638.7 L 650.5,645.3 L 665.0,650.3 L 670.9,647.9 L 675.4,671.3 L 682.0,682.2 L 684.6,702.8 L 693.7,711.8 L 693.6,718.5 L 700.7,711.7 L 705.6,712.1 L 711.0,707.5 L 714.8,698.7 L 713.8,696.0 L 727.1,680.8 L 727.9,668.2 L 733.2,662.5 L 731.3,655.4 L 733.5,653.5 L 733.0,645.7 L 737.4,642.0 L 736.2,634.9 L 739.9,637.7 L 738.2,630.5 L 740.0,625.8 L 738.0,628.1 L 731.8,615.5 L 732.1,611.9 L 738.5,606.3 L 734.0,601.1 L 736.2,594.2 L 732.3,587.4 L 731.9,578.9 L 735.6,571.2 L 723.9,560.1 L 721.1,551.4 L 705.2,541.6 L 700.9,533.3 L 692.0,530.3 L 692.0,525.6 L 690.5,526.5 L 691.7,525.4 L 689.9,526.0 L 689.5,523.9 L 689.9,514.9 L 683.4,513.6 L 682.3,524.1 L 680.6,525.1 L 682.3,519.5 L 677.6,526.7 L 668.2,527.7 L 628.2,517.6 L 624.9,509.5 L 618.1,513.8 L 610.4,513.7 L 602.5,509.5 L 601.5,501.2 L 596.3,500.6 L 593.5,502.9 L 587.2,498.6 L 580.7,497.9 L 564.8,501.3 L 561.8,498.0 L 543.2,505.1 L 520.4,501.3 L 502.4,490.7 L 483.3,487.4 L 476.7,478.9 L 476.8,474.9 L 475.1,477.8 L 473.2,475.3 L 478.4,449.5 L 475.8,441.4 L 476.9,411.9 L 473.2,408.4 L 472.6,398.1 L 465.5,386.0 L 466.6,375.9 L 464.4,372.6 L 459.2,373.7 L 457.7,369.9 L 444.7,366.7 L 434.6,361.1 L 429.8,353.2 L 422.4,353.2 L 415.5,348.9 L 395.6,344.2 L 385.1,346.7 L 372.4,337.2 L 359.7,335.9 L 352.1,340.5 L 336.4,337.6 L 329.2,339.3 L 327.6,348.7 L 320.5,354.3 L 315.8,367.0 Z M 443.6,497.5 L 443.6,497.5 Z M 476.8,478.3 L 476.8,478.3 Z M 512.9,479.0 L 512.9,479.0 Z"
          fill="#1D9E75" fill-opacity="0.7"
          stroke="#ffffff" stroke-width="1.5"/>
    <path id="commune-taiarapu-ouest" data-commune="Taiarapu-Ouest" class="commune-zone"
          d="M 433.4,514.7 L 446.9,522.2 L 448.2,518.1 L 457.4,518.2 L 456.5,521.2 L 447.7,522.4 L 456.5,532.9 L 455.3,535.4 L 452.6,533.5 L 452.7,536.5 L 466.7,550.2 L 469.0,563.4 L 464.9,567.3 L 466.9,566.9 L 466.6,569.9 L 469.0,568.1 L 471.4,572.8 L 475.2,573.5 L 483.1,581.8 L 486.3,590.2 L 485.8,600.3 L 489.7,609.1 L 493.6,610.2 L 492.4,618.6 L 486.4,629.6 L 491.5,638.1 L 501.4,638.6 L 511.3,654.4 L 524.6,666.0 L 525.8,670.2 L 523.9,671.7 L 527.1,674.3 L 532.3,676.3 L 535.9,674.0 L 536.6,677.3 L 536.6,674.2 L 539.4,675.4 L 542.8,683.3 L 544.6,682.7 L 543.0,684.0 L 554.8,688.3 L 555.6,693.8 L 566.8,695.6 L 576.4,693.0 L 581.7,697.5 L 592.6,701.4 L 598.2,701.7 L 600.8,697.4 L 605.2,698.2 L 613.2,703.6 L 625.9,706.5 L 632.7,713.9 L 637.8,714.3 L 640.8,710.7 L 644.5,711.9 L 644.5,714.8 L 649.7,718.9 L 651.6,717.6 L 650.3,719.8 L 653.4,721.6 L 659.0,717.6 L 671.2,722.1 L 683.6,723.2 L 692.3,719.9 L 691.6,716.2 L 693.6,718.5 L 693.7,711.8 L 684.6,702.8 L 682.0,682.2 L 675.4,671.3 L 670.9,647.9 L 665.0,650.3 L 650.5,645.3 L 642.2,638.7 L 638.8,630.3 L 631.9,626.7 L 628.9,626.1 L 625.9,629.4 L 616.3,628.3 L 609.5,630.5 L 607.1,624.3 L 611.5,613.1 L 609.9,599.5 L 596.1,601.2 L 586.5,616.3 L 584.0,615.7 L 577.7,611.4 L 574.6,594.5 L 558.5,582.8 L 560.2,576.2 L 558.7,573.8 L 546.2,564.6 L 536.4,564.4 L 533.9,556.1 L 521.1,546.3 L 513.2,543.5 L 509.6,536.7 L 501.6,532.0 L 487.6,528.4 L 466.5,515.7 L 450.2,512.8 L 444.2,506.7 L 441.5,509.4 L 437.4,508.9 L 436.0,512.1 L 440.9,513.9 L 441.8,519.5 L 435.5,513.0 L 433.4,514.7 Z M 447.9,521.5 L 449.2,520.6 L 447.9,521.5 Z M 448.9,521.2 L 448.9,521.2 Z"
          fill="#1D9E75" fill-opacity="0.7"
          stroke="#ffffff" stroke-width="1.5"/>
    <path id="commune-teva-i-uta" data-commune="Teva I Uta" class="commune-zone"
          d="M 241.0,466.0 L 248.3,504.5 L 257.8,518.7 L 257.4,530.1 L 252.0,544.9 L 255.6,551.2 L 252.8,563.6 L 258.2,568.3 L 266.1,563.4 L 268.4,559.2 L 278.0,557.0 L 280.7,554.3 L 283.4,553.7 L 284.5,556.7 L 281.4,556.1 L 283.1,557.1 L 299.2,554.7 L 302.0,555.2 L 301.2,557.0 L 302.8,555.3 L 310.3,556.5 L 319.7,560.2 L 320.2,556.1 L 327.4,551.1 L 332.6,550.6 L 338.2,554.1 L 343.9,551.3 L 344.9,541.3 L 350.9,538.1 L 362.0,536.9 L 366.3,539.7 L 371.1,535.4 L 376.9,535.2 L 381.3,537.4 L 379.1,539.8 L 391.8,538.7 L 399.8,536.2 L 407.2,529.4 L 416.9,530.0 L 424.8,522.0 L 426.3,514.7 L 424.3,506.6 L 419.3,505.5 L 423.5,504.1 L 428.8,506.2 L 431.4,504.3 L 429.8,501.2 L 424.1,499.7 L 429.0,498.0 L 411.5,490.8 L 407.6,483.0 L 407.2,471.8 L 410.8,465.6 L 408.6,459.7 L 410.0,448.9 L 402.6,432.7 L 385.5,430.1 L 382.5,427.0 L 365.4,420.5 L 363.0,414.7 L 364.0,407.3 L 355.5,404.3 L 346.9,397.1 L 323.6,399.3 L 317.0,389.8 L 301.4,393.0 L 287.3,402.2 L 272.1,407.6 L 261.3,403.8 L 246.9,405.2 L 245.1,422.6 L 249.9,438.1 L 249.5,447.9 L 241.0,466.0 Z M 255.5,566.8 L 255.5,566.8 Z M 283.1,556.1 L 283.1,556.1 Z M 304.0,564.8 L 305.5,563.1 L 304.0,564.8 Z M 336.8,558.9 L 339.0,556.3 L 336.8,558.9 Z"
          fill="#1D9E75" fill-opacity="0.7"
          stroke="#ffffff" stroke-width="1.5"/>
    <path id="commune-papara" data-commune="Papara" class="commune-zone"
          d="M 94.0,517.7 L 95.1,520.2 L 101.0,520.0 L 105.7,526.2 L 115.8,523.0 L 124.4,527.5 L 130.5,525.6 L 143.7,529.4 L 150.9,527.5 L 157.7,533.1 L 158.8,535.5 L 156.6,536.5 L 158.6,538.3 L 182.0,543.9 L 187.8,543.3 L 202.6,549.8 L 213.2,551.0 L 220.5,558.7 L 222.6,565.9 L 238.0,563.6 L 246.0,568.3 L 254.3,566.9 L 254.4,563.1 L 252.8,563.5 L 255.6,551.2 L 252.0,544.9 L 257.4,530.1 L 257.8,518.7 L 248.3,504.5 L 241.0,468.6 L 242.8,460.0 L 246.6,456.4 L 246.3,452.4 L 249.5,447.9 L 249.9,438.1 L 245.1,422.6 L 246.4,405.9 L 238.4,401.3 L 230.5,401.3 L 222.1,383.8 L 217.6,362.6 L 213.1,357.5 L 204.3,362.1 L 204.3,366.1 L 200.1,372.2 L 192.8,375.9 L 185.4,384.4 L 186.9,389.8 L 179.7,402.0 L 180.6,414.4 L 169.6,427.6 L 158.3,436.4 L 149.7,448.8 L 144.6,452.6 L 137.2,454.0 L 136.6,459.9 L 127.5,471.4 L 120.7,475.2 L 116.1,482.5 L 105.2,491.4 L 94.0,517.7 Z"
          fill="#1D9E75" fill-opacity="0.7"
          stroke="#ffffff" stroke-width="1.5"/>
    <path id="commune-paea" data-commune="Paea" class="commune-zone"
          d="M 46.1,389.6 L 60.7,420.8 L 59.1,426.4 L 61.4,427.5 L 63.3,437.9 L 63.1,461.2 L 68.4,475.4 L 68.8,491.6 L 73.3,498.8 L 72.7,507.6 L 81.6,508.9 L 94.0,517.7 L 105.2,491.4 L 116.1,482.5 L 120.7,475.2 L 127.5,471.4 L 136.6,459.9 L 137.2,454.0 L 144.6,452.6 L 149.7,448.8 L 158.3,436.4 L 169.6,427.6 L 180.6,414.4 L 179.7,402.0 L 186.9,389.8 L 185.2,384.8 L 171.9,379.5 L 160.6,377.9 L 156.4,374.8 L 116.0,370.9 L 104.2,359.3 L 85.3,364.6 L 80.9,372.2 L 69.1,377.9 L 63.0,384.0 L 46.1,389.6 Z M 71.1,500.0 L 71.1,500.0 Z"
          fill="#1D9E75" fill-opacity="0.7"
          stroke="#ffffff" stroke-width="1.5"/>
    <path id="commune-punaauia" data-commune="Punaauia" class="commune-zone"
          d="M 10.7,250.1 L 15.3,250.0 L 16.5,252.2 L 15.9,265.4 L 19.8,269.3 L 22.3,286.1 L 22.4,289.7 L 18.9,293.9 L 20.9,297.5 L 19.5,312.0 L 15.7,313.7 L 17.8,324.5 L 21.6,330.2 L 16.7,343.7 L 34.9,361.5 L 46.1,389.6 L 63.0,384.0 L 69.1,377.9 L 80.9,372.2 L 85.3,364.6 L 104.2,359.3 L 116.0,370.9 L 146.1,372.7 L 185.2,384.8 L 192.2,376.4 L 200.1,372.2 L 204.3,366.1 L 204.3,362.1 L 214.0,355.9 L 219.8,341.0 L 218.3,335.0 L 221.8,323.6 L 207.5,321.0 L 195.0,310.4 L 186.7,321.7 L 165.2,327.9 L 151.0,319.2 L 140.3,305.8 L 133.6,301.8 L 124.1,299.7 L 118.3,301.7 L 118.0,304.9 L 111.6,306.0 L 105.9,298.9 L 93.6,291.0 L 87.6,280.6 L 71.4,281.0 L 65.5,276.1 L 60.4,275.1 L 33.6,249.2 L 21.8,246.3 L 14.6,247.1 L 10.7,250.1 Z"
          fill="#1D9E75" fill-opacity="0.7"
          stroke="#ffffff" stroke-width="1.5"/>
    <path id="commune-faaa" data-commune="Faa'a" class="commune-zone"
          d="M 10.0,232.0 L 11.1,235.2 L 13.6,235.0 L 11.3,235.8 L 12.2,237.2 L 16.4,238.2 L 17.3,243.9 L 18.2,242.3 L 16.3,245.0 L 13.5,243.1 L 10.6,244.4 L 12.2,246.2 L 10.7,250.1 L 14.6,247.1 L 21.8,246.3 L 33.6,249.2 L 60.4,275.1 L 65.5,276.1 L 71.4,281.0 L 87.6,280.6 L 93.6,291.0 L 105.9,298.9 L 111.8,306.1 L 118.0,304.9 L 118.3,301.7 L 124.1,299.7 L 133.6,301.8 L 140.3,305.8 L 151.0,319.2 L 165.2,327.9 L 182.3,324.2 L 189.1,319.4 L 177.8,313.0 L 168.8,297.8 L 154.0,289.2 L 154.2,284.1 L 66.3,222.6 L 68.2,205.0 L 47.3,204.8 L 40.0,210.3 L 38.3,208.3 L 39.7,210.5 L 36.5,212.8 L 35.0,210.3 L 36.1,213.1 L 27.5,219.3 L 27.0,215.9 L 20.9,217.7 L 20.3,215.0 L 17.1,221.7 L 19.2,222.5 L 13.9,226.3 L 18.6,223.2 L 17.4,226.2 L 10.0,232.0 Z M 11.4,229.1 L 13.8,226.4 L 11.4,229.1 Z"
          fill="#1D9E75" fill-opacity="0.7"
          stroke="#ffffff" stroke-width="1.5"/>
  </g>
  <g id="quartiers-papeete" class="quartier-layer" data-for="Papeete">
    <circle class="quartier-marker" data-commune="Papeete" data-quartier="Centre-ville" cx="90.0" cy="189.8" r="5" fill="#0F6E56" fill-opacity="0.9" stroke="#fff" stroke-width="1.2"/>
    <text class="quartier-label" x="90.0" y="179.8" fill="#fff" stroke="#0F6E56" stroke-width="2.5" font-size="11" font-family="system-ui, sans-serif" font-weight="600" text-anchor="middle">Centre-ville</text>
    <circle class="quartier-marker" data-commune="Papeete" data-quartier="Paofai" cx="83.4" cy="195.2" r="5" fill="#0F6E56" fill-opacity="0.9" stroke="#fff" stroke-width="1.2"/>
    <text class="quartier-label" x="83.4" y="185.2" fill="#fff" stroke="#0F6E56" stroke-width="2.5" font-size="11" font-family="system-ui, sans-serif" font-weight="600" text-anchor="middle">Paofai</text>
    <circle class="quartier-marker" data-commune="Papeete" data-quartier="Tipaerui" cx="76.1" cy="198.3" r="5" fill="#0F6E56" fill-opacity="0.9" stroke="#fff" stroke-width="1.2"/>
    <text class="quartier-label" x="76.1" y="188.3" fill="#fff" stroke="#0F6E56" stroke-width="2.5" font-size="11" font-family="system-ui, sans-serif" font-weight="600" text-anchor="middle">Tipaerui</text>
    <circle class="quartier-marker" data-commune="Papeete" data-quartier="Mamao" cx="98.1" cy="204.5" r="5" fill="#0F6E56" fill-opacity="0.9" stroke="#fff" stroke-width="1.2"/>
    <text class="quartier-label" x="98.1" y="194.5" fill="#fff" stroke="#0F6E56" stroke-width="2.5" font-size="11" font-family="system-ui, sans-serif" font-weight="600" text-anchor="middle">Mamao</text>
    <circle class="quartier-marker" data-commune="Papeete" data-quartier="Fariipiti" cx="73.8" cy="188.3" r="5" fill="#0F6E56" fill-opacity="0.9" stroke="#fff" stroke-width="1.2"/>
    <text class="quartier-label" x="73.8" y="178.3" fill="#fff" stroke="#0F6E56" stroke-width="2.5" font-size="11" font-family="system-ui, sans-serif" font-weight="600" text-anchor="middle">Fariipiti</text>
    <circle class="quartier-marker" data-commune="Papeete" data-quartier="Fare Ute" cx="104.0" cy="182.1" r="5" fill="#0F6E56" fill-opacity="0.9" stroke="#fff" stroke-width="1.2"/>
    <text class="quartier-label" x="104.0" y="172.1" fill="#fff" stroke="#0F6E56" stroke-width="2.5" font-size="11" font-family="system-ui, sans-serif" font-weight="600" text-anchor="middle">Fare Ute</text>
    <circle class="quartier-marker" data-commune="Papeete" data-quartier="Motu Uta" cx="109.9" cy="175.2" r="5" fill="#0F6E56" fill-opacity="0.9" stroke="#fff" stroke-width="1.2"/>
    <text class="quartier-label" x="109.9" y="165.2" fill="#fff" stroke="#0F6E56" stroke-width="2.5" font-size="11" font-family="system-ui, sans-serif" font-weight="600" text-anchor="middle">Motu Uta</text>
  </g>
  <g id="quartiers-pirae" class="quartier-layer" data-for="Pirae">
    <circle class="quartier-marker" data-commune="Pirae" data-quartier="Hamuta" cx="109.9" cy="197.5" r="5" fill="#0F6E56" fill-opacity="0.9" stroke="#fff" stroke-width="1.2"/>
    <text class="quartier-label" x="109.9" y="187.5" fill="#fff" stroke="#0F6E56" stroke-width="2.5" font-size="11" font-family="system-ui, sans-serif" font-weight="600" text-anchor="middle">Hamuta</text>
    <circle class="quartier-marker" data-commune="Pirae" data-quartier="Orofara" cx="126.1" cy="186.7" r="5" fill="#0F6E56" fill-opacity="0.9" stroke="#fff" stroke-width="1.2"/>
    <text class="quartier-label" x="126.1" y="176.7" fill="#fff" stroke="#0F6E56" stroke-width="2.5" font-size="11" font-family="system-ui, sans-serif" font-weight="600" text-anchor="middle">Orofara</text>
    <circle class="quartier-marker" data-commune="Pirae" data-quartier="Taaone" cx="121.7" cy="197.5" r="5" fill="#0F6E56" fill-opacity="0.9" stroke="#fff" stroke-width="1.2"/>
    <text class="quartier-label" x="121.7" y="187.5" fill="#fff" stroke="#0F6E56" stroke-width="2.5" font-size="11" font-family="system-ui, sans-serif" font-weight="600" text-anchor="middle">Taaone</text>
    <circle class="quartier-marker" data-commune="Pirae" data-quartier="Fautaua" cx="106.9" cy="209.9" r="5" fill="#0F6E56" fill-opacity="0.9" stroke="#fff" stroke-width="1.2"/>
    <text class="quartier-label" x="106.9" y="199.9" fill="#fff" stroke="#0F6E56" stroke-width="2.5" font-size="11" font-family="system-ui, sans-serif" font-weight="600" text-anchor="middle">Fautaua</text>
  </g>
  <g id="quartiers-arue" class="quartier-layer" data-for="Arue">
    <circle class="quartier-marker" data-commune="Arue" data-quartier="Temarii" cx="158.4" cy="163.6" r="5" fill="#0F6E56" fill-opacity="0.9" stroke="#fff" stroke-width="1.2"/>
    <text class="quartier-label" x="158.4" y="153.6" fill="#fff" stroke="#0F6E56" stroke-width="2.5" font-size="11" font-family="system-ui, sans-serif" font-weight="600" text-anchor="middle">Temarii</text>
    <circle class="quartier-marker" data-commune="Arue" data-quartier="One Tree Hill" cx="173.2" cy="171.3" r="5" fill="#0F6E56" fill-opacity="0.9" stroke="#fff" stroke-width="1.2"/>
    <text class="quartier-label" x="173.2" y="161.3" fill="#fff" stroke="#0F6E56" stroke-width="2.5" font-size="11" font-family="system-ui, sans-serif" font-weight="600" text-anchor="middle">One Tree Hill</text>
    <circle class="quartier-marker" data-commune="Arue" data-quartier="RDO" cx="165.8" cy="159.0" r="5" fill="#0F6E56" fill-opacity="0.9" stroke="#fff" stroke-width="1.2"/>
    <text class="quartier-label" x="165.8" y="149.0" fill="#fff" stroke="#0F6E56" stroke-width="2.5" font-size="11" font-family="system-ui, sans-serif" font-weight="600" text-anchor="middle">RDO</text>
  </g>
  <g id="quartiers-mahina" class="quartier-layer" data-for="Mahina">
    <circle class="quartier-marker" data-commune="Mahina" data-quartier="Onoiau" cx="202.6" cy="143.5" r="5" fill="#0F6E56" fill-opacity="0.9" stroke="#fff" stroke-width="1.2"/>
    <text class="quartier-label" x="202.6" y="133.5" fill="#fff" stroke="#0F6E56" stroke-width="2.5" font-size="11" font-family="system-ui, sans-serif" font-weight="600" text-anchor="middle">Onoiau</text>
    <circle class="quartier-marker" data-commune="Mahina" data-quartier="Vaitupa" cx="209.9" cy="132.7" r="5" fill="#0F6E56" fill-opacity="0.9" stroke="#fff" stroke-width="1.2"/>
    <text class="quartier-label" x="209.9" y="122.7" fill="#fff" stroke="#0F6E56" stroke-width="2.5" font-size="11" font-family="system-ui, sans-serif" font-weight="600" text-anchor="middle">Vaitupa</text>
    <circle class="quartier-marker" data-commune="Mahina" data-quartier="Mahina centre" cx="198.2" cy="151.2" r="5" fill="#0F6E56" fill-opacity="0.9" stroke="#fff" stroke-width="1.2"/>
    <text class="quartier-label" x="198.2" y="141.2" fill="#fff" stroke="#0F6E56" stroke-width="2.5" font-size="11" font-family="system-ui, sans-serif" font-weight="600" text-anchor="middle">Mahina centre</text>
  </g>
  <g id="quartiers-hitiaa-o-te-ra" class="quartier-layer" data-for="Hitiaa O Te Ra">
    <circle class="quartier-marker" data-commune="Hitiaa O Te Ra" data-quartier="Hitiaa" cx="423.2" cy="151.2" r="5" fill="#0F6E56" fill-opacity="0.9" stroke="#fff" stroke-width="1.2"/>
    <text class="quartier-label" x="423.2" y="141.2" fill="#fff" stroke="#0F6E56" stroke-width="2.5" font-size="11" font-family="system-ui, sans-serif" font-weight="600" text-anchor="middle">Hitiaa</text>
    <circle class="quartier-marker" data-commune="Hitiaa O Te Ra" data-quartier="Mahaena" cx="452.7" cy="120.4" r="5" fill="#0F6E56" fill-opacity="0.9" stroke="#fff" stroke-width="1.2"/>
    <text class="quartier-label" x="452.7" y="110.4" fill="#fff" stroke="#0F6E56" stroke-width="2.5" font-size="11" font-family="system-ui, sans-serif" font-weight="600" text-anchor="middle">Mahaena</text>
    <circle class="quartier-marker" data-commune="Hitiaa O Te Ra" data-quartier="Tiarei" cx="415.9" cy="89.6" r="5" fill="#0F6E56" fill-opacity="0.9" stroke="#fff" stroke-width="1.2"/>
    <text class="quartier-label" x="415.9" y="79.6" fill="#fff" stroke="#0F6E56" stroke-width="2.5" font-size="11" font-family="system-ui, sans-serif" font-weight="600" text-anchor="middle">Tiarei</text>
    <circle class="quartier-marker" data-commune="Hitiaa O Te Ra" data-quartier="Papenoo est" cx="349.7" cy="12.4" r="5" fill="#0F6E56" fill-opacity="0.9" stroke="#fff" stroke-width="1.2"/>
    <text class="quartier-label" x="349.7" y="2.4" fill="#fff" stroke="#0F6E56" stroke-width="2.5" font-size="11" font-family="system-ui, sans-serif" font-weight="600" text-anchor="middle">Papenoo est</text>
  </g>
  <g id="quartiers-papenoo" class="quartier-layer" data-for="Papenoo">
    <circle class="quartier-marker" data-commune="Papenoo" data-quartier="Papenoo centre" cx="296.7" cy="-15.3" r="5" fill="#0F6E56" fill-opacity="0.9" stroke="#fff" stroke-width="1.2"/>
    <text class="quartier-label" x="296.7" y="-25.3" fill="#fff" stroke="#0F6E56" stroke-width="2.5" font-size="11" font-family="system-ui, sans-serif" font-weight="600" text-anchor="middle">Papenoo centre</text>
    <circle class="quartier-marker" data-commune="Papenoo" data-quartier="Vallee de la Papenoo" cx="290.8" cy="58.7" r="5" fill="#0F6E56" fill-opacity="0.9" stroke="#fff" stroke-width="1.2"/>
    <text class="quartier-label" x="290.8" y="48.7" fill="#fff" stroke="#0F6E56" stroke-width="2.5" font-size="11" font-family="system-ui, sans-serif" font-weight="600" text-anchor="middle">Vallee de la Papenoo</text>
  </g>
  <g id="quartiers-faaone" class="quartier-layer" data-for="Faaone">
    <circle class="quartier-marker" data-commune="Faaone" data-quartier="Faaone centre" cx="489.4" cy="259.3" r="5" fill="#0F6E56" fill-opacity="0.9" stroke="#fff" stroke-width="1.2"/>
    <text class="quartier-label" x="489.4" y="249.3" fill="#fff" stroke="#0F6E56" stroke-width="2.5" font-size="11" font-family="system-ui, sans-serif" font-weight="600" text-anchor="middle">Faaone centre</text>
  </g>
  <g id="quartiers-taiarapu-est" class="quartier-layer" data-for="Taiarapu-Est">
    <circle class="quartier-marker" data-commune="Taiarapu-Est" data-quartier="Taravao centre" cx="460.0" cy="501.6" r="5" fill="#0F6E56" fill-opacity="0.9" stroke="#fff" stroke-width="1.2"/>
    <text class="quartier-label" x="460.0" y="491.6" fill="#fff" stroke="#0F6E56" stroke-width="2.5" font-size="11" font-family="system-ui, sans-serif" font-weight="600" text-anchor="middle">Taravao centre</text>
    <circle class="quartier-marker" data-commune="Taiarapu-Est" data-quartier="Afaahiti" cx="438.0" cy="487.7" r="5" fill="#0F6E56" fill-opacity="0.9" stroke="#fff" stroke-width="1.2"/>
    <text class="quartier-label" x="438.0" y="477.7" fill="#fff" stroke="#0F6E56" stroke-width="2.5" font-size="11" font-family="system-ui, sans-serif" font-weight="600" text-anchor="middle">Afaahiti</text>
    <circle class="quartier-marker" data-commune="Taiarapu-Est" data-quartier="Pueu" cx="614.5" cy="568.1" r="5" fill="#0F6E56" fill-opacity="0.9" stroke="#fff" stroke-width="1.2"/>
    <text class="quartier-label" x="614.5" y="558.1" fill="#fff" stroke="#0F6E56" stroke-width="2.5" font-size="11" font-family="system-ui, sans-serif" font-weight="600" text-anchor="middle">Pueu</text>
    <circle class="quartier-marker" data-commune="Taiarapu-Est" data-quartier="Tautira" cx="702.8" cy="549.5" r="5" fill="#0F6E56" fill-opacity="0.9" stroke="#fff" stroke-width="1.2"/>
    <text class="quartier-label" x="702.8" y="539.5" fill="#fff" stroke="#0F6E56" stroke-width="2.5" font-size="11" font-family="system-ui, sans-serif" font-weight="600" text-anchor="middle">Tautira</text>
    <circle class="quartier-marker" data-commune="Taiarapu-Est" data-quartier="Vaihiria" cx="511.5" cy="568.1" r="5" fill="#0F6E56" fill-opacity="0.9" stroke="#fff" stroke-width="1.2"/>
    <text class="quartier-label" x="511.5" y="558.1" fill="#fff" stroke="#0F6E56" stroke-width="2.5" font-size="11" font-family="system-ui, sans-serif" font-weight="600" text-anchor="middle">Vaihiria</text>
    <circle class="quartier-marker" data-commune="Taiarapu-Est" data-quartier="Faaiti" cx="555.7" cy="560.3" r="5" fill="#0F6E56" fill-opacity="0.9" stroke="#fff" stroke-width="1.2"/>
    <text class="quartier-label" x="555.7" y="550.3" fill="#fff" stroke="#0F6E56" stroke-width="2.5" font-size="11" font-family="system-ui, sans-serif" font-weight="600" text-anchor="middle">Faaiti</text>
    <circle class="quartier-marker" data-commune="Taiarapu-Est" data-quartier="Toahotu" cx="415.9" cy="521.7" r="5" fill="#0F6E56" fill-opacity="0.9" stroke="#fff" stroke-width="1.2"/>
    <text class="quartier-label" x="415.9" y="511.7" fill="#fff" stroke="#0F6E56" stroke-width="2.5" font-size="11" font-family="system-ui, sans-serif" font-weight="600" text-anchor="middle">Toahotu</text>
    <circle class="quartier-marker" data-commune="Taiarapu-Est" data-quartier="Plateau de Taravao" cx="482.1" cy="521.7" r="5" fill="#0F6E56" fill-opacity="0.9" stroke="#fff" stroke-width="1.2"/>
    <text class="quartier-label" x="482.1" y="511.7" fill="#fff" stroke="#0F6E56" stroke-width="2.5" font-size="11" font-family="system-ui, sans-serif" font-weight="600" text-anchor="middle">Plateau de Taravao</text>
  </g>
  <g id="quartiers-taiarapu-ouest" class="quartier-layer" data-for="Taiarapu-Ouest">
    <circle class="quartier-marker" data-commune="Taiarapu-Ouest" data-quartier="Teahupoo" cx="536.5" cy="676.2" r="5" fill="#0F6E56" fill-opacity="0.9" stroke="#fff" stroke-width="1.2"/>
    <text class="quartier-label" x="536.5" y="666.2" fill="#fff" stroke="#0F6E56" stroke-width="2.5" font-size="11" font-family="system-ui, sans-serif" font-weight="600" text-anchor="middle">Teahupoo</text>
    <circle class="quartier-marker" data-commune="Taiarapu-Ouest" data-quartier="Vairao" cx="482.1" cy="629.9" r="5" fill="#0F6E56" fill-opacity="0.9" stroke="#fff" stroke-width="1.2"/>
    <text class="quartier-label" x="482.1" y="619.9" fill="#fff" stroke="#0F6E56" stroke-width="2.5" font-size="11" font-family="system-ui, sans-serif" font-weight="600" text-anchor="middle">Vairao</text>
    <circle class="quartier-marker" data-commune="Taiarapu-Ouest" data-quartier="Toahotu ouest" cx="408.5" cy="552.6" r="5" fill="#0F6E56" fill-opacity="0.9" stroke="#fff" stroke-width="1.2"/>
    <text class="quartier-label" x="408.5" y="542.6" fill="#fff" stroke="#0F6E56" stroke-width="2.5" font-size="11" font-family="system-ui, sans-serif" font-weight="600" text-anchor="middle">Toahotu ouest</text>
  </g>
  <g id="quartiers-teva-i-uta" class="quartier-layer" data-for="Teva I Uta">
    <circle class="quartier-marker" data-commune="Teva I Uta" data-quartier="Mataiea" cx="220.2" cy="549.5" r="5" fill="#0F6E56" fill-opacity="0.9" stroke="#fff" stroke-width="1.2"/>
    <text class="quartier-label" x="220.2" y="539.5" fill="#fff" stroke="#0F6E56" stroke-width="2.5" font-size="11" font-family="system-ui, sans-serif" font-weight="600" text-anchor="middle">Mataiea</text>
    <circle class="quartier-marker" data-commune="Teva I Uta" data-quartier="Papeari" cx="390.9" cy="510.1" r="5" fill="#0F6E56" fill-opacity="0.9" stroke="#fff" stroke-width="1.2"/>
    <text class="quartier-label" x="390.9" y="500.1" fill="#fff" stroke="#0F6E56" stroke-width="2.5" font-size="11" font-family="system-ui, sans-serif" font-weight="600" text-anchor="middle">Papeari</text>
  </g>
  <g id="quartiers-papara" class="quartier-layer" data-for="Papara">
    <circle class="quartier-marker" data-commune="Papara" data-quartier="Papara centre" cx="129.0" cy="498.6" r="5" fill="#0F6E56" fill-opacity="0.9" stroke="#fff" stroke-width="1.2"/>
    <text class="quartier-label" x="129.0" y="488.6" fill="#fff" stroke="#0F6E56" stroke-width="2.5" font-size="11" font-family="system-ui, sans-serif" font-weight="600" text-anchor="middle">Papara centre</text>
    <circle class="quartier-marker" data-commune="Papara" data-quartier="Atimaono" cx="158.4" cy="521.7" r="5" fill="#0F6E56" fill-opacity="0.9" stroke="#fff" stroke-width="1.2"/>
    <text class="quartier-label" x="158.4" y="511.7" fill="#fff" stroke="#0F6E56" stroke-width="2.5" font-size="11" font-family="system-ui, sans-serif" font-weight="600" text-anchor="middle">Atimaono</text>
    <circle class="quartier-marker" data-commune="Papara" data-quartier="Mara" cx="173.2" cy="514.0" r="5" fill="#0F6E56" fill-opacity="0.9" stroke="#fff" stroke-width="1.2"/>
    <text class="quartier-label" x="173.2" y="504.0" fill="#fff" stroke="#0F6E56" stroke-width="2.5" font-size="11" font-family="system-ui, sans-serif" font-weight="600" text-anchor="middle">Mara</text>
  </g>
  <g id="quartiers-paea" class="quartier-layer" data-for="Paea">
    <circle class="quartier-marker" data-commune="Paea" data-quartier="Paea centre" cx="76.1" cy="413.6" r="5" fill="#0F6E56" fill-opacity="0.9" stroke="#fff" stroke-width="1.2"/>
    <text class="quartier-label" x="76.1" y="403.6" fill="#fff" stroke="#0F6E56" stroke-width="2.5" font-size="11" font-family="system-ui, sans-serif" font-weight="600" text-anchor="middle">Paea centre</text>
    <circle class="quartier-marker" data-commune="Paea" data-quartier="Mapumai" cx="84.9" cy="429.1" r="5" fill="#0F6E56" fill-opacity="0.9" stroke="#fff" stroke-width="1.2"/>
    <text class="quartier-label" x="84.9" y="419.1" fill="#fff" stroke="#0F6E56" stroke-width="2.5" font-size="11" font-family="system-ui, sans-serif" font-weight="600" text-anchor="middle">Mapumai</text>
    <circle class="quartier-marker" data-commune="Paea" data-quartier="Orofara Paea" cx="92.2" cy="402.8" r="5" fill="#0F6E56" fill-opacity="0.9" stroke="#fff" stroke-width="1.2"/>
    <text class="quartier-label" x="92.2" y="392.8" fill="#fff" stroke="#0F6E56" stroke-width="2.5" font-size="11" font-family="system-ui, sans-serif" font-weight="600" text-anchor="middle">Orofara Paea</text>
  </g>
  <g id="quartiers-punaauia" class="quartier-layer" data-for="Punaauia">
    <circle class="quartier-marker" data-commune="Punaauia" data-quartier="Outumaoro" cx="20.2" cy="257.7" r="5" fill="#0F6E56" fill-opacity="0.9" stroke="#fff" stroke-width="1.2"/>
    <text class="quartier-label" x="20.2" y="247.7" fill="#fff" stroke="#0F6E56" stroke-width="2.5" font-size="11" font-family="system-ui, sans-serif" font-weight="600" text-anchor="middle">Outumaoro</text>
    <circle class="quartier-marker" data-commune="Punaauia" data-quartier="Oropaa" cx="58.4" cy="274.7" r="5" fill="#0F6E56" fill-opacity="0.9" stroke="#fff" stroke-width="1.2"/>
    <text class="quartier-label" x="58.4" y="264.7" fill="#fff" stroke="#0F6E56" stroke-width="2.5" font-size="11" font-family="system-ui, sans-serif" font-weight="600" text-anchor="middle">Oropaa</text>
    <circle class="quartier-marker" data-commune="Punaauia" data-quartier="PK18" cx="50.3" cy="305.6" r="5" fill="#0F6E56" fill-opacity="0.9" stroke="#fff" stroke-width="1.2"/>
    <text class="quartier-label" x="50.3" y="295.6" fill="#fff" stroke="#0F6E56" stroke-width="2.5" font-size="11" font-family="system-ui, sans-serif" font-weight="600" text-anchor="middle">PK18</text>
    <circle class="quartier-marker" data-commune="Punaauia" data-quartier="PK20" cx="43.7" cy="328.7" r="5" fill="#0F6E56" fill-opacity="0.9" stroke="#fff" stroke-width="1.2"/>
    <text class="quartier-label" x="43.7" y="318.7" fill="#fff" stroke="#0F6E56" stroke-width="2.5" font-size="11" font-family="system-ui, sans-serif" font-weight="600" text-anchor="middle">PK20</text>
    <circle class="quartier-marker" data-commune="Punaauia" data-quartier="PK21" cx="40.7" cy="344.1" r="5" fill="#0F6E56" fill-opacity="0.9" stroke="#fff" stroke-width="1.2"/>
    <text class="quartier-label" x="40.7" y="334.1" fill="#fff" stroke="#0F6E56" stroke-width="2.5" font-size="11" font-family="system-ui, sans-serif" font-weight="600" text-anchor="middle">PK21</text>
    <circle class="quartier-marker" data-commune="Punaauia" data-quartier="Ah-Sing" cx="48.1" cy="313.3" r="5" fill="#0F6E56" fill-opacity="0.9" stroke="#fff" stroke-width="1.2"/>
    <text class="quartier-label" x="48.1" y="303.3" fill="#fff" stroke="#0F6E56" stroke-width="2.5" font-size="11" font-family="system-ui, sans-serif" font-weight="600" text-anchor="middle">Ah-Sing</text>
    <circle class="quartier-marker" data-commune="Punaauia" data-quartier="Manotahi" cx="67.2" cy="267.0" r="5" fill="#0F6E56" fill-opacity="0.9" stroke="#fff" stroke-width="1.2"/>
    <text class="quartier-label" x="67.2" y="257.0" fill="#fff" stroke="#0F6E56" stroke-width="2.5" font-size="11" font-family="system-ui, sans-serif" font-weight="600" text-anchor="middle">Manotahi</text>
    <circle class="quartier-marker" data-commune="Punaauia" data-quartier="Tamarii" cx="40.7" cy="351.9" r="5" fill="#0F6E56" fill-opacity="0.9" stroke="#fff" stroke-width="1.2"/>
    <text class="quartier-label" x="40.7" y="341.9" fill="#fff" stroke="#0F6E56" stroke-width="2.5" font-size="11" font-family="system-ui, sans-serif" font-weight="600" text-anchor="middle">Tamarii</text>
  </g>
  <g id="quartiers-faaa" class="quartier-layer" data-for="Faa'a">
    <circle class="quartier-marker" data-commune="Faa'a" data-quartier="Faa'a centre" cx="43.7" cy="209.9" r="5" fill="#0F6E56" fill-opacity="0.9" stroke="#fff" stroke-width="1.2"/>
    <text class="quartier-label" x="43.7" y="199.9" fill="#fff" stroke="#0F6E56" stroke-width="2.5" font-size="11" font-family="system-ui, sans-serif" font-weight="600" text-anchor="middle">Faa'a centre</text>
    <circle class="quartier-marker" data-commune="Faa'a" data-quartier="Maeva Beach" cx="52.5" cy="216.0" r="5" fill="#0F6E56" fill-opacity="0.9" stroke="#fff" stroke-width="1.2"/>
    <text class="quartier-label" x="52.5" y="206.0" fill="#fff" stroke="#0F6E56" stroke-width="2.5" font-size="11" font-family="system-ui, sans-serif" font-weight="600" text-anchor="middle">Maeva Beach</text>
    <circle class="quartier-marker" data-commune="Faa'a" data-quartier="Heiri" cx="37.8" cy="200.6" r="5" fill="#0F6E56" fill-opacity="0.9" stroke="#fff" stroke-width="1.2"/>
    <text class="quartier-label" x="37.8" y="190.6" fill="#fff" stroke="#0F6E56" stroke-width="2.5" font-size="11" font-family="system-ui, sans-serif" font-weight="600" text-anchor="middle">Heiri</text>
    <circle class="quartier-marker" data-commune="Faa'a" data-quartier="Vaitea" cx="33.4" cy="206.8" r="5" fill="#0F6E56" fill-opacity="0.9" stroke="#fff" stroke-width="1.2"/>
    <text class="quartier-label" x="33.4" y="196.8" fill="#fff" stroke="#0F6E56" stroke-width="2.5" font-size="11" font-family="system-ui, sans-serif" font-weight="600" text-anchor="middle">Vaitea</text>
    <circle class="quartier-marker" data-commune="Faa'a" data-quartier="Aeroport" cx="30.5" cy="222.2" r="5" fill="#0F6E56" fill-opacity="0.9" stroke="#fff" stroke-width="1.2"/>
    <text class="quartier-label" x="30.5" y="212.2" fill="#fff" stroke="#0F6E56" stroke-width="2.5" font-size="11" font-family="system-ui, sans-serif" font-weight="600" text-anchor="middle">Aeroport</text>
    <circle class="quartier-marker" data-commune="Faa'a" data-quartier="Pamatai" cx="26.0" cy="209.9" r="5" fill="#0F6E56" fill-opacity="0.9" stroke="#fff" stroke-width="1.2"/>
    <text class="quartier-label" x="26.0" y="199.9" fill="#fff" stroke="#0F6E56" stroke-width="2.5" font-size="11" font-family="system-ui, sans-serif" font-weight="600" text-anchor="middle">Pamatai</text>
  </g>
  <g id="labels-layer">
    <text class="commune-label" x="97.5" y="205.8" fill="#ffffff" stroke="#0F6E56" stroke-width="3" font-size="13" font-family="system-ui, sans-serif" font-weight="600" text-anchor="middle">Papeete</text>
    <text class="commune-label" x="151.8" y="237.2" fill="#ffffff" stroke="#0F6E56" stroke-width="3" font-size="13" font-family="system-ui, sans-serif" font-weight="600" text-anchor="middle">Pirae</text>
    <text class="commune-label" x="170.3" y="194.2" fill="#ffffff" stroke="#0F6E56" stroke-width="3" font-size="13" font-family="system-ui, sans-serif" font-weight="600" text-anchor="middle">Arue</text>
    <text class="commune-label" x="227.6" y="219.0" fill="#ffffff" stroke="#0F6E56" stroke-width="3" font-size="14" font-family="system-ui, sans-serif" font-weight="600" text-anchor="middle">Mahina</text>
    <text class="commune-label" x="346.6" y="274.2" fill="#ffffff" stroke="#0F6E56" stroke-width="3" font-size="15" font-family="system-ui, sans-serif" font-weight="600" text-anchor="middle">Hitiaa</text>
    <text class="commune-label" x="346.6" y="292.2" fill="#ffffff" stroke="#0F6E56" stroke-width="3" font-size="15" font-family="system-ui, sans-serif" font-weight="600" text-anchor="middle">O Te Ra</text>
    <text class="commune-label" x="284.5" y="275.4" fill="#ffffff" stroke="#0F6E56" stroke-width="3" font-size="15" font-family="system-ui, sans-serif" font-weight="600" text-anchor="middle">Papenoo</text>
    <text class="commune-label" x="410.9" y="404.1" fill="#ffffff" stroke="#0F6E56" stroke-width="3" font-size="14" font-family="system-ui, sans-serif" font-weight="600" text-anchor="middle">Faaone</text>
    <text class="commune-label" x="559.3" y="523.7" fill="#ffffff" stroke="#0F6E56" stroke-width="3" font-size="15" font-family="system-ui, sans-serif" font-weight="600" text-anchor="middle">Taiarapu-Est</text>
    <text class="commune-label" x="547.0" y="631.5" fill="#ffffff" stroke="#0F6E56" stroke-width="3" font-size="15" font-family="system-ui, sans-serif" font-weight="600" text-anchor="middle">Taiarapu-Ouest</text>
    <text class="commune-label" x="334.8" y="498.8" fill="#ffffff" stroke="#0F6E56" stroke-width="3" font-size="15" font-family="system-ui, sans-serif" font-weight="600" text-anchor="middle">Teva I Uta</text>
    <text class="commune-label" x="183.5" y="484.0" fill="#ffffff" stroke="#0F6E56" stroke-width="3" font-size="14" font-family="system-ui, sans-serif" font-weight="600" text-anchor="middle">Papara</text>
    <text class="commune-label" x="112.0" y="437.7" fill="#ffffff" stroke="#0F6E56" stroke-width="3" font-size="14" font-family="system-ui, sans-serif" font-weight="600" text-anchor="middle">Paea</text>
    <text class="commune-label" x="88.0" y="323.1" fill="#ffffff" stroke="#0F6E56" stroke-width="3" font-size="14" font-family="system-ui, sans-serif" font-weight="600" text-anchor="middle">Punaauia</text>
    <text class="commune-label" x="57.0" y="253.5" fill="#ffffff" stroke="#0F6E56" stroke-width="3" font-size="13" font-family="system-ui, sans-serif" font-weight="600" text-anchor="middle">Faa'a</text>
  </g>
</svg>